<?xml version="1.0" encoding="UTF-8" standalone="no"?>
<!DOCTYPE svg PUBLIC "-//W3C//DTD SVG 1.1//EN" "http://www.w3.org/Graphics/SVG/1.1/DTD/svg11.dtd">
<svg version="1.1" xmlns="http://www.w3.org/2000/svg" xmlns:xlink="http://www.w3.org/1999/xlink" preserveAspectRatio="xMidYMid meet" viewBox="0 0 640 640" width="30" height="30"><defs><path d="M640 320C640 496.61 496.61 640 320 640C143.39 640 0 496.61 0 320C0 143.39 143.39 0 320 0C496.61 0 640 143.39 640 320Z" id="a2Lwbr4XY7"></path><path d="M618.73 337.03C630.47 337.03 640 327.5 640 315.75C640 252.6 640 84.43 640 21.27C640 9.53 630.47 0 618.73 0C494.98 0 145.02 0 21.27 0C9.53 0 0 9.53 0 21.27C0 84.43 0 252.6 0 315.75C0 327.5 9.53 337.03 21.27 337.03C145.02 337.03 494.98 337.03 618.73 337.03Z" id="aEUpIjob"></path><path d="M541.68 240.63L321.41 557.33L98.32 242.6L238.85 241.98L237.36 -92.85L400.02 -93.57L401.51 241.25L541.68 240.63Z" id="bSM69Y9nn"></path></defs><g><g><g><use xlink:href="#a2Lwbr4XY7" opacity="1" fill="#ff0000" fill-opacity="1"></use></g><g><use xlink:href="#aEUpIjob" opacity="1" fill="#ff0000" fill-opacity="1"></use></g><g><use xlink:href="#bSM69Y9nn" opacity="1" fill="#ffffff" fill-opacity="1"></use></g></g></g></svg>